<?xml version="1.0" encoding="UTF-8"?>
<svg viewBox="0 0 128 128" xmlns="http://www.w3.org/2000/svg" role="img" aria-labelledby="title desc">
  <title id="title">Watch Dog</title>
  <desc id="desc">Dog head logo for Watch Dog.</desc>
  <defs>
    <linearGradient id="watchdog-bg" x1="18%" x2="82%" y1="8%" y2="92%">
      <stop offset="0%" stop-color="#25d0d0"/>
      <stop offset="100%" stop-color="#0b8f92"/>
    </linearGradient>
  </defs>
  <circle cx="64" cy="64" r="58" fill="url(#watchdog-bg)"/>
  <path d="M40 43 24 56l8 32 22-17Z" fill="#101828"/>
  <path d="M88 43 104 56 96 88 74 71Z" fill="#101828"/>
  <ellipse cx="64" cy="62" rx="36" ry="40" fill="#fff"/>
  <ellipse cx="64" cy="77" rx="20" ry="15" fill="#f8f4ea"/>
  <ellipse cx="51" cy="56" rx="4" ry="6" fill="#101828"/>
  <ellipse cx="77" cy="56" rx="4" ry="6" fill="#101828"/>
  <ellipse cx="64" cy="72" rx="6" ry="4" fill="#101828"/>
  <path d="M64 75c-3 8-12 10-17 2m17-2c3 8 12 10 17 2" fill="none" stroke="#101828" stroke-width="4" stroke-linecap="round"/>
  <rect x="45" y="96" width="38" height="8" rx="4" fill="#ff6b4a"/>
  <circle cx="64" cy="101" r="4" fill="#fff"/>
  <path d="M30 45c10-17 26-25 47-22" fill="none" stroke="#fff" stroke-width="4" stroke-linecap="round" opacity=".95"/>
</svg>
