<?xml version="1.0" encoding="UTF-8"?>
<svg viewBox="0 0 128 128" xmlns="http://www.w3.org/2000/svg" role="img" aria-labelledby="title desc">
  <title id="title">Watch Dog</title>
  <desc id="desc">Polished dog badge logo for Watch Dog.</desc>
  <defs>
    <linearGradient id="watchdog-bg" x1="16" x2="112" y1="14" y2="114" gradientUnits="userSpaceOnUse">
      <stop offset="0" stop-color="#18d5c2"/>
      <stop offset="1" stop-color="#3267e3"/>
    </linearGradient>
  </defs>
  <circle cx="64" cy="64" r="58" fill="url(#watchdog-bg)"/>
  <circle cx="64" cy="64" r="52" fill="none" stroke="#ffffff" stroke-opacity=".38" stroke-width="3"/>
  <path d="M31 52c8-15 22-24 43-25" fill="none" stroke="#fff" stroke-width="6" stroke-linecap="round" opacity=".9"/>
  <path d="M41 43c-16 6-20 26-12 49 8-4 15-10 21-19 0-13-3-23-9-30Z" fill="#101828"/>
  <path d="M87 43c16 6 20 26 12 49-8-4-15-10-21-19 0-13 3-23 9-30Z" fill="#101828"/>
  <path d="M64 24c-23 0-34 21-32 45 1 22 16 33 28 31 2-.4 3-2 4-2s2 1.6 4 2c12 2 27-9 28-31 2-24-9-45-32-45Z" fill="#fff8e8"/>
  <ellipse cx="51" cy="53" rx="10" ry="9" fill="#d9a86c"/>
  <ellipse cx="64" cy="77" rx="19" ry="13" fill="#f4e8d0"/>
  <ellipse cx="52" cy="58" rx="4" ry="6" fill="#101828"/>
  <ellipse cx="76" cy="58" rx="4" ry="6" fill="#101828"/>
  <circle cx="53" cy="56" r="1.5" fill="#fff"/>
  <circle cx="77" cy="56" r="1.5" fill="#fff"/>
  <ellipse cx="64" cy="73" rx="6" ry="5" fill="#101828"/>
  <path d="M64 78v5" stroke="#101828" stroke-width="4" stroke-linecap="round"/>
  <path d="M64 83c-4 8-15 8-20 0m20 0c4 8 15 8 20 0" fill="none" stroke="#101828" stroke-width="4" stroke-linecap="round"/>
  <rect x="45" y="96" width="38" height="8" rx="4" fill="#ff6b4a"/>
  <circle cx="64" cy="101" r="5" fill="#f7c948"/>
  <path d="m61.5 101 2 2.4 4-5.2" fill="none" stroke="#172033" stroke-width="2" stroke-linecap="round" stroke-linejoin="round"/>
</svg>
